<?xml version="1.0" standalone="no"?>
<!DOCTYPE svg PUBLIC "-//W3C//DTD SVG 20010904//EN"
 "http://www.w3.org/TR/2001/REC-SVG-20010904/DTD/svg10.dtd">
<svg version="1.0" xmlns="http://www.w3.org/2000/svg"
 width="1127.000000pt" height="1280.000000pt" viewBox="0 0 1127.000000 1280.000000"
 preserveAspectRatio="xMidYMid meet">
<metadata>
Created by potrace 1.15, written by Peter Selinger 2001-2017
</metadata>
<g transform="translate(0.000000,1280.000000) scale(0.100000,-0.100000)"
fill="#000000" stroke="none">
<path d="M3280 12789 c-330 -38 -748 -188 -1205 -431 -932 -496 -1515 -1035
-1619 -1495 -20 -89 -21 -211 -2 -283 12 -44 401 -1059 410 -1067 1 -2 49 52
107 120 210 246 524 552 794 773 760 622 1684 1060 2645 1254 107 22 219 42
248 46 28 4 52 9 52 12 0 2 -161 205 -357 450 -393 489 -418 515 -565 572
-137 53 -317 71 -508 49z"/>
<path d="M7646 12785 c-112 -19 -209 -57 -291 -113 -63 -43 -107 -94 -432
-497 -199 -248 -363 -453 -363 -456 0 -4 24 -9 53 -13 28 -4 131 -23 227 -42
877 -174 1708 -543 2440 -1082 347 -256 743 -625 1019 -949 58 -68 106 -122
107 -120 9 8 398 1023 410 1067 19 72 18 194 -2 283 -79 349 -435 747 -1014
1134 -430 288 -926 543 -1310 675 -108 36 -289 83 -405 103 -127 23 -341 28
-439 10z"/>
<path d="M5245 11259 c-845 -58 -1698 -320 -2430 -747 -1482 -864 -2493 -2343
-2749 -4022 -49 -324 -60 -480 -60 -855 0 -376 11 -536 60 -855 215 -1406 962
-2682 2089 -3571 765 -604 1669 -997 2625 -1143 322 -49 480 -60 855 -60 376
0 534 11 855 60 1406 215 2682 961 3571 2089 604 765 996 1666 1143 2625 49
319 60 479 60 855 0 375 -11 531 -60 855 -214 1401 -956 2674 -2079 3566 -891
707 -1980 1127 -3123 1204 -176 11 -580 11 -757 -1z m790 -774 c970 -83 1848
-429 2610 -1029 339 -266 674 -616 932 -971 775 -1069 1079 -2400 847 -3710
-188 -1062 -750 -2059 -1564 -2779 -350 -309 -689 -534 -1115 -742 -1321 -644
-2893 -645 -4213 -4 -101 49 -225 113 -275 141 -1078 612 -1877 1589 -2256
2761 -249 770 -298 1623 -140 2423 121 615 349 1172 703 1724 259 403 664 845
1061 1157 756 595 1637 944 2595 1029 202 18 610 18 815 0z"/>
<path d="M5508 9711 c-108 -43 -191 -122 -230 -219 l-23 -57 -3 -1707 -2
-1708 -1713 -2 -1712 -3 -66 -32 c-79 -39 -150 -111 -187 -191 -24 -50 -27
-69 -27 -157 0 -87 3 -107 26 -156 50 -106 143 -185 254 -214 52 -13 275 -15
1955 -15 1549 0 1904 3 1945 14 119 31 206 103 258 214 l32 67 0 1945 0 1945
-23 57 c-33 81 -108 160 -190 200 -58 29 -78 33 -157 36 -69 1 -101 -2 -137
-17z"/>
</g>
</svg>
