<!-- <svg xmlns="http://www.w3.org/2000/svg"  viewBox="0 0 30 30" width="30px" height="30px"><path d="M 26.980469 5.9902344 A 1.0001 1.0001 0 0 0 26.292969 6.2929688 L 11 21.585938 L 4.7070312 15.292969 A 1.0001 1.0001 0 1 0 3.2929688 16.707031 L 10.292969 23.707031 A 1.0001 1.0001 0 0 0 11.707031 23.707031 L 27.707031 7.7070312 A 1.0001 1.0001 0 0 0 26.980469 5.9902344 z"/></svg> -->
<svg xmlns="http://www.w3.org/2000/svg"  viewBox="0 0 50 50" width="50px" height="50px"><path d="M 25 2 C 12.309534 2 2 12.309534 2 25 C 2 37.690466 12.309534 48 25 48 C 37.690466 48 48 37.690466 48 25 C 48 12.309534 37.690466 2 25 2 z M 25 4 C 36.609534 4 46 13.390466 46 25 C 46 36.609534 36.609534 46 25 46 C 13.390466 46 4 36.609534 4 25 C 4 13.390466 13.390466 4 25 4 z M 34.988281 14.988281 A 1.0001 1.0001 0 0 0 34.171875 15.439453 L 23.970703 30.476562 L 16.679688 23.710938 A 1.0001 1.0001 0 1 0 15.320312 25.177734 L 24.316406 33.525391 L 35.828125 16.560547 A 1.0001 1.0001 0 0 0 34.988281 14.988281 z"/></svg>